<?xml version="1.0" ?>
<!-- Uploaded to: SVG Repo, www.svgrepo.com, Generator: SVG Repo Mixer Tools -->
<svg width="800px" height="800px" viewBox="0 0 32 32" xmlns="http://www.w3.org/2000/svg">
<defs>
<style>.cls-1{fill:#f2f2f2;}.cls-2{fill:#2e3192;}.cls-3{fill:#3fa9f5;}</style>
</defs>
<title/>
<g data-name="01" id="_01">
<circle class="cls-1" cx="16" cy="16" r="13"/>
<path class="cls-2" d="M16,30A14,14,0,1,1,30,16a1,1,0,0,1-2,0,12,12,0,1,0-.52,3.52,1,1,0,1,1,1.91.58A13.92,13.92,0,0,1,16,30Z"/>
<polygon class="cls-3" points="13.67 11 13.67 21 20.33 16 13.67 11"/>
<path class="cls-2" d="M13.67,22a.88.88,0,0,1-.45-.11,1,1,0,0,1-.55-.89V11a1,1,0,0,1,.55-.89,1,1,0,0,1,1,.09l6.66,5a1,1,0,0,1,0,1.6l-6.66,5A1,1,0,0,1,13.67,22Zm1-9v6l4-3Z"/>
</g>
</svg>