<?xml version="1.0" standalone="no"?><!DOCTYPE svg PUBLIC "-//W3C//DTD SVG 1.1//EN" "http://www.w3.org/Graphics/SVG/1.1/DTD/svg11.dtd"><svg t="1753039492516" class="icon" viewBox="0 0 1024 1024" version="1.1" xmlns="http://www.w3.org/2000/svg" p-id="17019" xmlns:xlink="http://www.w3.org/1999/xlink" width="200" height="200"><path d="M602.2 913.5c-34.9 0-69.6-11.2-98.8-33.1l-152-114c-2.6-2-5.7-3-9-3h-130c-91 0-165-74-165-165v-180c0-91 74-165 165-165h130c3.3 0 6.4-1.1 9-3l152-114c50.3-37.7 116.5-43.7 172.8-15.6 56.3 28.1 91.2 84.7 91.2 147.6v480c0 62.9-35 119.4-91.2 147.6-23.6 11.7-48.9 17.5-74 17.5z m-44.8-105.2c23.2 17.4 52.6 20 78.5 7.1 26-13 41.5-38.1 41.5-67.1v-480c0-29-15.5-54.1-41.5-67.1s-55.3-10.3-78.5 7.1l-152 114c-18.1 13.5-40.5 21-63 21h-130c-41.4 0-75 33.6-75 75v180c0 41.4 33.6 75 75 75h130c22.6 0 44.9 7.4 63 21l152 114z" fill="#2081F6" p-id="17020"></path><path d="M854.4 785.2c-10.2 0-20.5-3.5-29-10.6-19-16-21.4-44.4-5.4-63.4 47.7-56.6 74-128.7 74-202.9s-26.3-146.2-74-202.9c-16-19-13.6-47.4 5.4-63.4 19.1-16 47.4-13.5 63.4 5.4 61.3 72.9 95.2 165.5 95.2 260.9s-33.8 188-95.2 260.9c-8.8 10.5-21.5 16-34.4 16z" fill="#4C4F54" p-id="17021"></path></svg>