<?xml version="1.0" standalone="no"?><!DOCTYPE svg PUBLIC "-//W3C//DTD SVG 1.1//EN" "http://www.w3.org/Graphics/SVG/1.1/DTD/svg11.dtd"><svg t="1753067122969" class="icon" viewBox="0 0 1228 1024" version="1.1" xmlns="http://www.w3.org/2000/svg" p-id="34317" xmlns:xlink="http://www.w3.org/1999/xlink" width="239.84375" height="200"><path d="M1130.6496 424.2944c28.5184 0 51.6608 23.1424 51.6608 51.6608a361.4208 361.4208 0 0 1-348.4672 361.1648l-12.9536 0.2048H222.72l66.816 66.7648c18.432 18.432 19.968 47.4624 4.608 67.7376l-4.608 5.2736a51.6608 51.6608 0 0 1-67.7376 4.608l-5.2736-4.608-154.88-154.88-0.4608-0.4608c-1.024-1.024-1.9968-2.1504-2.9184-3.2768l3.3792 3.7376a52.0704 52.0704 0 0 1-7.8336-10.0352l-0.256-0.4096a51.3536 51.3536 0 0 1-7.0656-26.112v-1.2288l0.2048-2.9696-0.2048 4.2496a52.0704 52.0704 0 0 1 10.496-31.232c1.5872-2.048 3.072-3.6864 4.608-5.2736l154.9312-154.88a51.6096 51.6096 0 0 1 77.6192 67.7376l-4.608 5.2736-66.8672 66.7136h598.2208a258.1504 258.1504 0 0 0 258.1504-258.0992c0-28.5184 23.0912-51.6096 51.6096-51.6096zM614.4 321.0752h1.6896c1.3312 0.0512 2.6112 0.1536 3.9424 0.3072L614.4 321.024a52.0192 52.0192 0 0 1 36.1984 14.7968 63.8464 63.8464 0 0 1 5.4272 6.2976l1.6896 2.4064 0.256 0.4608a51.4048 51.4048 0 0 1 8.0384 26.112v259.6864a51.6096 51.6096 0 0 1-102.912 5.9904l-0.3072-5.9904V467.8144l-31.744 20.5824a51.6096 51.6096 0 0 1-61.44-82.7392l5.2224-3.84 111.4624-72.3968 0.768-0.512c1.1264-0.7168 2.2528-1.3824 3.4304-1.9968l-4.1984 2.5088a52.1216 52.1216 0 0 1 27.5456-8.3456H614.4zM1007.0016 21.8112l5.2736 4.608 154.88 154.88 0.4608 0.4608c1.024 1.024 1.9968 2.1504 2.9184 3.2768l-3.3792-3.7376a52.0704 52.0704 0 0 1 12.4928 20.1728l0.3584 1.1264a51.5584 51.5584 0 0 1 2.304 15.2064v1.6896l-0.1536 2.304 0.1536-3.9936a52.0704 52.0704 0 0 1-10.496 31.232l-0.7168 0.8704a51.968 51.968 0 0 1-0.1536 0.2048l-3.7888 4.1984-154.88 154.88a51.6096 51.6096 0 0 1-77.6192-67.7376l4.608-5.2736 66.7136-66.7648H407.9104a258.1504 258.1504 0 0 0-258.1504 258.1504 51.6096 51.6096 0 0 1-103.2704 0A361.4208 361.4208 0 0 1 394.9568 166.4l12.9536-0.2048h598.1184l-66.7648-66.7648a51.6608 51.6608 0 0 1-4.608-67.7376l4.608-5.2736a51.6608 51.6608 0 0 1 67.7376-4.608z" fill="#1296db" p-id="34318"></path></svg>