<?xml version="1.0" standalone="no"?><!DOCTYPE svg PUBLIC "-//W3C//DTD SVG 1.1//EN" "http://www.w3.org/Graphics/SVG/1.1/DTD/svg11.dtd"><svg height="1024" node-id="1" sillyvg="true" template-height="1024" template-width="1024" version="1.1" viewBox="0 0 1024 1024" width="1024" xmlns="http://www.w3.org/2000/svg" xmlns:xlink="http://www.w3.org/1999/xlink"><defs node-id="55"></defs><g node-id="158"><path d="M 389.20 594.00 C 390.40 593.90 391.70 594.00 393.00 593.70 C 403.80 591.20 414.90 589.90 425.70 587.60 C 450.00 582.40 474.80 579.80 498.60 572.30 C 508.50 569.20 519.10 569.20 528.80 565.00 C 536.30 561.70 544.70 561.20 552.60 558.80 C 561.20 556.20 570.00 553.00 579.00 551.80 C 583.80 551.10 587.90 547.80 592.40 547.30 C 600.70 546.20 607.70 541.80 615.90 540.40 C 619.50 539.80 623.70 538.20 627.40 536.70 C 632.00 534.80 636.90 533.80 641.20 531.60 C 646.50 528.90 652.20 527.30 657.70 525.60 C 662.70 524.10 667.80 522.20 672.30 520.10 C 684.20 514.50 696.70 510.40 708.20 504.00 C 715.60 499.80 724.00 497.40 730.80 492.10 C 733.00 490.40 733.80 488.80 733.40 485.90 C 731.40 470.50 727.00 455.60 723.00 440.70 C 720.10 430.00 715.30 420.30 707.00 412.00 C 699.10 404.10 693.50 394.10 685.90 385.80 C 677.90 377.10 668.90 369.50 659.80 362.00 C 649.70 353.70 637.90 348.30 626.40 342.20 C 618.00 337.70 609.00 334.40 600.10 331.40 C 590.50 328.20 580.80 324.60 570.60 323.30 C 562.20 322.30 553.90 319.60 545.60 319.30 C 535.00 319.00 524.50 318.10 513.80 318.80 C 503.30 319.40 492.80 319.80 482.40 321.20 C 473.40 322.40 464.10 323.40 455.70 326.60 C 445.60 330.50 435.20 333.30 425.30 337.40 C 419.30 339.90 413.30 342.60 407.60 345.80 C 402.00 348.90 396.50 351.90 391.10 355.40 C 384.10 359.90 376.40 363.70 370.30 369.30 C 364.90 374.20 359.00 378.30 353.70 383.30 C 346.20 390.50 338.90 397.80 332.60 405.90 C 323.10 418.30 314.90 431.60 307.90 445.80 C 303.20 455.50 299.20 465.40 296.60 475.50 C 293.40 487.80 290.20 500.30 290.60 513.40 C 290.80 520.80 290.40 528.40 291.00 535.80 C 291.10 537.60 292.10 539.20 291.70 541.20 C 290.10 550.30 292.60 559.20 295.60 567.40 C 298.40 575.10 299.40 583.30 303.00 590.60 C 304.90 594.40 305.50 600.30 310.60 600.50 C 315.10 600.60 319.70 602.50 324.40 600.10 C 326.30 599.10 329.00 599.00 331.20 599.20 C 341.80 600.30 352.00 597.00 362.50 596.90 C 371.50 596.90 379.90 592.50 389.20 594.00 Z M 729.90 552.10 C 729.60 549.30 730.00 546.10 727.30 544.40 C 724.50 542.70 722.40 545.00 720.30 546.60 C 719.70 547.10 718.80 547.50 718.00 547.60 C 709.70 549.20 702.90 554.40 695.00 556.90 C 690.80 558.20 686.90 560.90 682.70 561.50 C 676.50 562.50 671.30 565.70 665.50 567.60 C 661.70 568.80 657.70 569.90 653.90 571.40 C 646.50 574.20 639.40 577.90 631.30 578.90 C 630.00 579.10 628.40 579.10 627.50 579.90 C 621.30 585.10 613.00 585.40 606.00 587.10 C 595.70 589.70 585.90 594.90 575.10 595.10 C 569.50 595.20 565.50 599.20 560.20 599.90 C 555.00 600.60 549.80 602.20 544.60 602.60 C 538.30 603.10 533.30 606.90 527.30 607.90 C 513.00 610.40 498.70 613.10 484.30 615.80 C 470.90 618.20 457.50 620.20 444.30 623.10 C 435.90 625.00 427.40 625.30 418.90 625.90 C 409.20 626.60 399.90 629.60 389.90 629.70 C 381.00 629.80 371.60 630.80 362.60 632.40 C 355.30 633.70 347.90 632.90 340.50 633.40 C 337.90 633.60 334.90 632.10 333.30 634.70 C 331.70 637.20 333.60 639.70 335.20 641.90 C 341.10 650.20 349.10 656.50 356.80 662.80 C 369.20 673.10 382.90 681.90 397.30 689.20 C 412.20 696.80 428.40 701.50 444.60 705.80 C 457.00 709.10 469.60 711.10 482.50 711.70 C 485.90 711.90 489.20 712.50 492.80 712.30 C 496.60 712.10 500.70 711.80 504.50 712.30 C 511.10 713.20 517.60 712.40 524.00 711.70 C 535.80 710.40 547.50 707.40 559.30 705.80 C 569.00 704.50 577.90 700.90 587.10 698.30 C 591.30 697.10 595.80 696.00 599.60 694.00 C 605.70 690.80 612.20 688.30 618.30 685.00 C 627.80 679.80 637.20 674.60 646.40 668.80 C 655.50 663.00 663.30 655.60 671.30 648.60 C 678.10 642.70 684.50 636.20 690.10 629.10 C 694.30 623.70 697.40 617.70 701.60 612.30 C 705.90 606.90 710.30 601.20 713.40 595.00 C 719.20 583.10 724.10 570.80 728.50 558.30 C 729.40 556.40 730.30 554.40 729.90 552.10 Z M 195.10 448.90 C 195.20 450.70 194.70 452.80 196.90 453.70 C 198.90 454.50 200.30 453.20 201.70 452.00 C 205.70 448.80 210.20 446.70 214.90 444.80 C 217.90 443.60 219.80 444.50 220.80 447.30 C 223.50 454.40 228.70 460.00 231.40 467.10 C 232.40 469.80 235.00 470.30 237.70 469.90 C 239.20 469.70 240.30 468.50 239.70 467.10 C 237.10 460.10 239.50 452.70 238.00 445.60 C 236.50 438.80 241.50 434.20 248.30 435.20 C 255.00 436.20 261.70 436.90 268.50 435.10 C 270.00 434.70 271.50 434.70 271.90 432.80 C 272.20 431.10 272.10 429.40 270.60 428.30 C 266.90 425.50 264.20 421.60 260.80 418.60 C 256.50 414.90 254.90 411.20 256.50 405.40 C 257.50 401.80 258.90 397.90 257.40 393.70 C 256.00 389.60 254.50 388.90 251.20 391.50 C 245.50 396.00 239.00 399.40 233.30 403.80 C 226.80 408.80 223.60 407.90 218.20 401.60 C 215.20 398.10 211.80 395.00 208.30 392.10 C 205.90 390.10 202.30 391.30 202.60 393.90 C 203.60 401.50 203.80 409.50 207.30 416.60 C 209.40 420.80 210.00 425.00 210.10 429.40 C 210.10 430.40 209.90 431.30 208.90 431.90 C 203.80 434.80 200.60 439.70 196.70 443.90 C 195.40 445.40 194.90 447.00 195.10 448.90 Z M 725.90 262.80 C 725.90 257.90 723.20 256.10 719.30 258.00 C 717.20 259.00 715.10 260.10 713.30 261.50 C 710.20 264.00 708.30 263.10 705.90 260.20 C 701.10 254.30 695.90 248.70 690.80 243.00 C 689.70 241.80 688.40 242.00 687.10 242.20 C 685.80 242.40 684.80 243.50 685.10 244.70 C 687.10 250.70 684.40 256.80 686.30 262.80 C 688.80 270.90 690.40 279.00 680.60 283.80 C 680.30 283.90 680.10 284.30 679.90 284.50 C 677.70 286.40 677.20 288.80 678.30 291.30 C 679.50 294.00 681.70 292.10 683.50 292.10 C 687.00 292.10 691.40 290.40 692.50 295.60 C 693.90 302.10 697.80 307.90 697.90 314.80 C 697.90 316.20 698.20 318.20 700.00 318.30 C 701.50 318.50 703.40 318.00 704.40 316.50 C 707.60 311.70 711.10 307.00 713.70 301.90 C 716.80 296.00 720.30 294.20 726.40 295.30 C 728.90 295.80 731.60 296.50 734.30 296.20 C 739.10 295.60 740.50 292.40 737.70 288.40 C 736.90 287.30 735.90 286.40 735.20 285.30 C 731.10 278.20 721.80 272.90 725.90 262.80 Z" fill="#fefdfd" fill-rule="nonzero" group-id="1" node-id="59" stroke="none" target-height="471.40002" target-width="545.8" target-x="194.7" target-y="241.8"></path><path d="M 814.40 459.00 C 815.20 459.00 816.10 459.00 816.90 459.10 C 816.90 461.80 816.90 464.40 816.90 467.10 C 816.30 467.10 815.80 467.20 815.20 467.20 C 814.90 464.40 814.70 461.70 814.40 459.00 Z" fill="#d8d4e0" fill-rule="nonzero" group-id="1" node-id="61" stroke="none" target-height="8.200012" target-width="2.499939" target-x="814.4001" target-y="459"></path><path d="M 389.20 594.00 C 379.90 592.50 371.50 596.90 362.60 597.00 C 352.10 597.10 341.90 600.30 331.30 599.30 C 329.10 599.10 326.40 599.20 324.50 600.20 C 319.90 602.60 315.20 600.70 310.70 600.60 C 305.60 600.40 304.90 594.50 303.10 590.70 C 299.50 583.40 298.50 575.20 295.70 567.50 C 292.70 559.30 290.20 550.50 291.80 541.30 C 292.10 539.40 291.20 537.70 291.10 535.90 C 290.50 528.40 290.90 520.90 290.70 513.50 C 290.30 500.40 293.50 487.90 296.70 475.60 C 299.30 465.50 303.30 455.50 308.00 445.90 C 315.00 431.70 323.10 418.40 332.70 406.00 C 339.00 397.90 346.30 390.50 353.80 383.40 C 359.10 378.30 365.00 374.30 370.40 369.40 C 376.50 363.80 384.20 360.00 391.20 355.50 C 396.60 352.10 402.10 349.00 407.70 345.90 C 413.40 342.70 419.40 340.10 425.40 337.50 C 435.30 333.30 445.80 330.60 455.80 326.70 C 464.20 323.50 473.50 322.50 482.50 321.30 C 492.90 319.90 503.40 319.60 513.90 318.90 C 524.50 318.30 535.10 319.10 545.70 319.40 C 554.10 319.70 562.40 322.40 570.70 323.40 C 581.00 324.60 590.60 328.30 600.20 331.50 C 609.10 334.50 618.10 337.80 626.50 342.30 C 637.90 348.40 649.80 353.90 659.90 362.10 C 669.00 369.50 678.00 377.10 686.00 385.90 C 693.60 394.20 699.20 404.20 707.10 412.10 C 715.40 420.40 720.20 430.10 723.10 440.80 C 727.10 455.70 731.50 470.50 733.50 486.00 C 733.90 489.00 733.10 490.50 730.90 492.20 C 724.10 497.50 715.70 499.90 708.30 504.10 C 696.80 510.50 684.30 514.60 672.40 520.20 C 668.00 522.30 662.80 524.10 657.80 525.70 C 652.30 527.40 646.60 529.00 641.30 531.70 C 637.00 533.90 632.00 534.90 627.50 536.80 C 623.80 538.30 619.70 539.80 616.00 540.50 C 607.80 541.90 600.80 546.30 592.50 547.40 C 588.00 548.00 584.00 551.30 579.10 551.90 C 570.00 553.20 561.30 556.30 552.70 558.90 C 544.80 561.30 536.30 561.80 528.90 565.10 C 519.10 569.30 508.50 569.30 498.70 572.40 C 474.90 580.00 450.00 582.50 425.80 587.70 C 415.00 590.00 403.90 591.30 393.10 593.80 C 391.70 594.00 390.40 594.00 389.20 594.00 Z" fill="#fcf0aa" fill-rule="nonzero" group-id="1" node-id="63" stroke="none" target-height="284.3" target-width="443.70007" target-x="290.2" target-y="318.3"></path><path d="M 729.90 552.10 C 730.20 554.40 729.30 556.40 728.60 558.40 C 724.20 570.90 719.30 583.20 713.50 595.10 C 710.50 601.30 706.10 606.90 701.70 612.40 C 697.50 617.80 694.40 623.80 690.20 629.20 C 684.60 636.40 678.20 642.80 671.40 648.70 C 663.30 655.70 655.60 663.10 646.50 668.90 C 637.40 674.70 627.90 679.90 618.40 685.10 C 612.30 688.40 605.80 690.90 599.70 694.10 C 595.90 696.10 591.40 697.20 587.20 698.40 C 578.00 701.00 569.00 704.60 559.40 705.90 C 547.60 707.40 536.00 710.50 524.10 711.80 C 517.70 712.50 511.20 713.30 504.60 712.40 C 500.80 711.90 496.70 712.20 492.90 712.40 C 489.30 712.60 486.10 712.00 482.60 711.80 C 469.80 711.20 457.10 709.20 444.70 705.90 C 428.50 701.60 412.30 696.90 397.40 689.30 C 383.10 682.00 369.30 673.20 356.90 662.90 C 349.30 656.60 341.20 650.30 335.30 642.00 C 333.70 639.80 331.80 637.30 333.40 634.80 C 335.00 632.20 338.00 633.70 340.60 633.50 C 348.00 633.00 355.40 633.80 362.70 632.50 C 371.70 630.90 381.10 629.90 390.00 629.80 C 400.00 629.70 409.30 626.60 419.00 626.00 C 427.50 625.40 435.90 625.10 444.40 623.20 C 457.60 620.20 471.10 618.30 484.40 615.90 C 498.70 613.30 513.00 610.50 527.40 608.00 C 533.40 607.00 538.50 603.20 544.70 602.70 C 549.90 602.30 555.10 600.70 560.30 600.00 C 565.60 599.30 569.50 595.20 575.20 595.20 C 586.00 595.10 595.80 589.80 606.10 587.20 C 613.10 585.50 621.40 585.20 627.60 580.00 C 628.50 579.20 630.10 579.20 631.40 579.00 C 639.40 578.00 646.60 574.30 654.00 571.50 C 657.80 570.00 661.80 568.90 665.60 567.70 C 671.40 565.90 676.60 562.70 682.80 561.60 C 686.90 560.90 690.80 558.30 695.10 557.00 C 703.00 554.50 709.80 549.30 718.10 547.70 C 718.90 547.50 719.70 547.20 720.40 546.70 C 722.50 545.00 724.70 542.80 727.40 544.50 C 730.10 546.10 729.70 549.30 729.90 552.10 Z" fill="#fcf0aa" fill-rule="nonzero" group-id="1" node-id="65" stroke="none" target-height="170.5" target-width="398.40002" target-x="331.8" target-y="542.8"></path><path d="M 814.40 459.00 C 814.70 461.70 814.90 464.40 815.20 467.20 C 814.00 468.30 814.20 469.80 814.20 471.20 C 811.40 473.10 809.90 475.90 808.90 479.10 C 807.60 480.50 806.80 482.30 805.00 483.10 C 803.60 483.10 803.00 483.70 803.00 485.10 C 802.80 485.30 802.80 485.50 802.70 485.80 C 801.20 486.60 799.20 486.90 798.90 489.10 C 798.00 490.60 795.30 489.80 794.90 492.00 C 792.30 492.20 790.60 493.50 789.80 495.90 C 789.20 496.30 788.70 496.80 788.10 497.20 C 786.90 497.10 786.10 497.60 785.80 498.70 C 785.80 498.70 785.70 498.80 785.70 498.80 C 784.20 499.50 782.20 499.70 781.90 501.90 C 781.90 501.90 781.90 501.90 781.90 501.90 C 780.00 503.10 777.20 502.50 776.00 505.00 C 775.40 505.40 774.80 505.90 774.20 506.30 C 772.30 507.70 769.40 507.70 768.10 510.00 C 767.50 510.40 766.80 510.90 766.20 511.30 C 764.80 511.10 763.40 510.80 762.90 512.70 C 762.90 512.70 762.80 512.80 762.90 512.80 C 761.10 514.10 758.30 513.60 757.10 516.00 C 750.70 520.80 743.80 524.40 736.10 527.20 C 730.10 529.40 724.30 532.60 718.20 534.90 C 713.40 536.70 708.70 539.10 704.00 541.10 C 699.80 542.90 695.20 543.80 691.00 546.40 C 687.30 548.60 682.70 550.10 678.40 551.40 C 675.60 552.30 672.80 553.80 670.30 554.30 C 664.50 555.30 659.80 558.70 654.20 559.90 C 647.60 561.30 641.20 564.20 634.80 566.50 C 634.00 566.80 633.30 567.40 632.60 567.50 C 623.80 568.30 615.90 572.30 607.60 574.70 C 599.00 577.20 590.00 578.40 581.70 582.40 C 576.80 584.80 570.70 584.60 565.20 586.00 C 555.70 588.40 546.50 592.10 536.60 593.10 C 532.50 593.50 528.30 594.20 524.40 595.50 C 497.50 604.10 469.50 607.80 441.70 612.00 C 428.20 614.00 414.70 617.20 401.10 617.50 C 393.40 617.70 385.90 620.70 378.60 619.90 C 370.10 619.00 362.00 623.20 353.60 620.90 C 353.10 620.80 352.60 620.80 352.10 620.90 C 345.40 623.50 338.40 622.20 331.60 622.50 C 324.80 622.80 317.80 623.00 311.00 623.30 C 304.20 623.60 297.70 622.70 291.10 622.50 C 282.10 622.20 273.10 621.00 264.20 619.80 C 255.80 618.60 247.30 617.40 239.10 614.60 C 231.80 612.10 223.80 610.60 219.20 603.50 C 215.50 597.80 213.50 591.80 216.70 584.70 C 218.90 579.70 221.20 575.20 225.80 572.20 C 229.60 569.60 231.20 570.40 232.10 574.70 C 232.70 577.40 232.80 579.80 231.80 582.50 C 229.70 588.20 234.50 596.90 239.80 599.90 C 250.10 605.70 261.50 607.30 272.80 609.10 C 279.20 610.10 286.00 608.70 292.20 610.20 C 296.90 611.30 301.40 608.60 305.80 611.10 C 306.20 611.30 306.80 611.40 307.30 611.30 C 317.40 608.40 327.90 610.80 338.10 609.30 C 348.30 607.80 358.60 606.80 368.70 606.20 C 383.40 605.40 397.40 600.40 411.80 600.10 C 429.10 599.70 445.40 594.70 462.30 592.50 C 467.40 591.80 471.30 588.30 476.70 587.80 C 487.20 586.80 497.90 585.00 508.00 582.10 C 518.50 579.10 529.30 577.20 539.60 574.00 C 546.50 571.90 554.10 571.50 560.40 568.40 C 567.80 564.70 576.70 565.90 583.40 560.60 C 583.60 560.40 584.00 560.30 584.40 560.30 C 593.40 560.10 601.40 555.90 609.60 553.10 C 615.20 551.20 621.70 551.00 626.90 547.10 C 630.00 544.80 634.60 544.20 638.30 543.10 C 643.70 541.60 648.60 539.00 654.00 537.50 C 659.00 536.10 664.00 533.60 668.90 531.80 C 673.50 530.20 677.50 527.00 682.50 526.50 C 686.10 526.10 689.30 523.90 692.30 522.30 C 697.80 519.50 703.70 517.50 709.10 514.20 C 713.80 511.40 719.40 509.70 724.50 507.20 C 732.70 503.20 740.90 499.20 748.20 493.30 C 753.70 488.80 760.30 485.60 765.60 480.40 C 771.80 474.40 777.30 468.50 778.90 459.60 C 779.60 456.00 777.30 449.70 773.60 446.90 C 772.80 446.30 772.00 445.70 771.10 445.20 C 767.70 443.50 767.40 440.10 768.30 437.50 C 769.10 435.20 772.50 435.60 775.00 435.70 C 779.90 435.90 784.40 438.20 789.20 439.00 C 792.60 442.20 797.50 441.50 801.30 443.90 C 802.50 444.70 803.60 445.70 805.20 445.50 C 806.50 446.40 807.70 447.40 809.00 448.30 C 809.00 448.60 809.10 448.80 809.30 449.00 C 809.30 450.30 810.00 451.00 811.30 450.90 C 811.50 451.10 811.70 451.20 812.00 451.20 C 812.40 452.40 813.20 453.40 814.30 453.90 C 814.10 455.70 814.30 457.30 814.40 459.00 Z" fill="#887b9f" fill-rule="nonzero" group-id="1" node-id="67" stroke="none" target-height="188.39996" target-width="601.7" target-x="213.5" target-y="435.2"></path><path d="M 195.10 448.90 C 194.90 447.00 195.40 445.40 196.70 443.90 C 200.50 439.70 203.80 434.80 208.90 431.90 C 209.90 431.30 210.20 430.40 210.10 429.40 C 210.10 424.90 209.40 420.80 207.30 416.60 C 203.80 409.60 203.60 401.60 202.60 393.90 C 202.30 391.30 205.80 390.00 208.30 392.10 C 211.80 395.00 215.20 398.20 218.20 401.60 C 223.60 407.90 226.80 408.90 233.30 403.80 C 239.00 399.30 245.50 395.90 251.20 391.50 C 254.60 388.90 256.00 389.70 257.40 393.70 C 258.90 397.80 257.50 401.80 256.50 405.40 C 254.90 411.20 256.50 414.90 260.80 418.60 C 264.20 421.60 266.90 425.50 270.60 428.30 C 272.10 429.40 272.30 431.10 271.90 432.80 C 271.50 434.70 270.00 434.70 268.50 435.10 C 261.80 436.90 255.00 436.30 248.30 435.20 C 241.40 434.20 236.50 438.70 238.00 445.60 C 239.60 452.70 237.10 460.10 239.70 467.10 C 240.20 468.50 239.20 469.70 237.70 469.90 C 235.00 470.30 232.40 469.80 231.40 467.10 C 228.80 460.00 223.50 454.40 220.80 447.30 C 219.80 444.60 217.90 443.60 214.90 444.80 C 210.20 446.70 205.60 448.80 201.70 452.00 C 200.20 453.20 198.90 454.50 196.90 453.70 C 194.60 452.80 195.20 450.70 195.10 448.90 Z" fill="#fcf1ad" fill-rule="nonzero" group-id="1" node-id="69" stroke="none" target-height="81.399994" target-width="77.7" target-x="194.59999" target-y="388.9"></path><path d="M 725.90 262.80 C 721.80 272.90 731.10 278.20 735.40 285.50 C 736.10 286.60 737.10 287.50 737.90 288.60 C 740.70 292.60 739.30 295.80 734.50 296.40 C 731.80 296.70 729.10 296.00 726.60 295.50 C 720.50 294.40 717.00 296.20 713.90 302.10 C 711.30 307.20 707.80 311.90 704.60 316.70 C 703.60 318.20 701.70 318.70 700.20 318.50 C 698.40 318.30 698.20 316.40 698.10 315.00 C 698.00 308.10 694.10 302.30 692.70 295.80 C 691.60 290.60 687.10 292.30 683.70 292.30 C 681.90 292.30 679.60 294.20 678.50 291.50 C 677.40 289.00 677.90 286.60 680.10 284.70 C 680.40 284.50 680.50 284.10 680.80 284.00 C 690.60 279.10 689.00 271.00 686.50 263.00 C 684.60 257.00 687.40 250.80 685.30 244.90 C 684.90 243.80 685.90 242.70 687.30 242.40 C 688.60 242.20 689.90 241.90 691.00 243.20 C 696.00 248.90 701.30 254.50 706.10 260.40 C 708.50 263.30 710.40 264.20 713.50 261.70 C 715.30 260.30 717.40 259.20 719.50 258.20 C 723.20 256.10 725.90 257.80 725.90 262.80 Z" fill="#fcf1ac" fill-rule="nonzero" group-id="1" node-id="71" stroke="none" target-height="76.80002" target-width="63.299988" target-x="677.4" target-y="241.9"></path><path d="M 801.00 443.90 C 797.30 441.50 792.30 442.20 788.90 439.00 C 793.30 439.80 798.50 438.60 801.00 443.90 Z" fill="#d8d4e0" fill-rule="nonzero" group-id="1" node-id="73" stroke="none" target-height="5.299988" target-width="12.099976" target-x="788.9" target-y="438.6"></path><path d="M 808.90 479.00 C 809.90 475.80 811.40 473.00 814.20 471.10 C 813.90 474.70 812.00 477.20 808.90 479.00 Z" fill="#d8d4e0" fill-rule="nonzero" group-id="1" node-id="75" stroke="none" target-height="7.899994" target-width="5.299988" target-x="808.9" target-y="471.1"></path><path d="M 767.90 510.00 C 769.30 507.60 772.10 507.70 774.00 506.30 C 773.90 510.50 770.70 509.90 767.90 510.00 Z" fill="#d8d4e0" fill-rule="nonzero" group-id="1" node-id="77" stroke="none" target-height="4.1999817" target-width="6.0999146" target-x="767.9001" target-y="506.30002"></path><path d="M 789.70 495.80 C 790.50 493.30 792.30 492.00 794.80 491.90 C 794.10 494.50 792.30 495.60 789.70 495.80 Z" fill="#d8d4e0" fill-rule="nonzero" group-id="1" node-id="79" stroke="none" target-height="3.899994" target-width="5.0999756" target-x="789.7" target-y="491.9"></path><path d="M 756.90 516.00 C 758.10 513.60 760.90 514.10 762.70 512.80 C 762.60 517.20 759.20 515.60 756.90 516.00 Z" fill="#d8d4e0" fill-rule="nonzero" group-id="1" node-id="81" stroke="none" target-height="4.4000244" target-width="5.799988" target-x="756.9" target-y="512.8"></path><path d="M 808.70 448.30 C 807.40 447.40 806.20 446.40 804.90 445.50 C 807.30 444.20 807.90 444.60 808.70 448.30 Z" fill="#d8d4e0" fill-rule="nonzero" group-id="1" node-id="83" stroke="none" target-height="4.0999756" target-width="3.7999878" target-x="804.9" target-y="444.2"></path><path d="M 775.90 505.00 C 777.00 502.40 779.90 503.00 781.80 501.90 C 781.10 505.30 778.10 504.50 775.90 505.00 Z" fill="#d8d4e0" fill-rule="nonzero" group-id="1" node-id="85" stroke="none" target-height="3.3999634" target-width="5.8999634" target-x="775.9" target-y="501.9"></path><path d="M 798.90 489.00 C 799.20 486.80 801.20 486.60 802.70 485.70 C 803.00 488.70 801.00 488.90 798.90 489.00 Z" fill="#d8d4e0" fill-rule="nonzero" group-id="1" node-id="87" stroke="none" target-height="3.3000183" target-width="4.0999146" target-x="798.9001" target-y="485.69998"></path><path d="M 781.80 501.80 C 782.20 499.60 784.10 499.50 785.60 498.70 C 785.90 501.80 784.00 502.00 781.80 501.80 Z" fill="#d8d4e0" fill-rule="nonzero" group-id="1" node-id="89" stroke="none" target-height="3.2999878" target-width="4.1000366" target-x="781.8" target-y="498.7"></path><path d="M 814.00 454.00 C 812.80 453.40 812.10 452.50 811.70 451.30 C 813.40 451.40 815.50 451.10 814.00 454.00 Z" fill="#d8d4e0" fill-rule="nonzero" group-id="1" node-id="91" stroke="none" target-height="2.899994" target-width="3.8000488" target-x="811.69995" target-y="451.1"></path><path d="M 762.70 512.70 C 763.20 510.80 764.60 511.10 766.00 511.30 C 765.50 513.10 764.10 513.00 762.70 512.70 Z" fill="#d8d4e0" fill-rule="nonzero" group-id="1" node-id="93" stroke="none" target-height="2.2999878" target-width="3.2999878" target-x="762.7" target-y="510.8"></path><path d="M 811.00 450.90 C 809.70 450.90 809.00 450.30 809.00 449.00 C 810.20 449.00 810.90 449.60 811.00 450.90 Z" fill="#d8d4e0" fill-rule="nonzero" group-id="1" node-id="95" stroke="none" target-height="1.8999939" target-width="2" target-x="809" target-y="449"></path><path d="M 802.90 485.00 C 802.90 483.70 803.50 483.00 804.90 483.00 C 804.90 484.30 804.20 485.00 802.90 485.00 Z" fill="#d8d4e0" fill-rule="nonzero" group-id="1" node-id="97" stroke="none" target-height="2" target-width="2" target-x="802.9" target-y="483"></path><path d="M 785.70 498.70 C 786.10 497.60 786.80 497.10 788.00 497.20 C 787.80 498.50 787.00 499.00 785.70 498.70 Z" fill="#d8d4e0" fill-rule="nonzero" group-id="1" node-id="99" stroke="none" target-height="1.8999634" target-width="2.2999268" target-x="785.7001" target-y="497.10004"></path></g><g node-id="159"><path d="M 505.50 726.00 C 469.50 726.40 435.00 719.50 402.20 704.60 C 376.60 693.00 353.70 677.50 334.00 657.40 C 330.20 653.50 326.10 649.60 323.20 645.00 C 320.00 639.80 315.40 639.40 310.30 639.30 C 283.30 639.10 256.40 637.60 230.70 628.10 C 223.50 625.40 216.80 621.60 211.00 616.50 C 200.60 607.40 198.00 593.70 204.10 580.50 C 209.60 568.60 218.70 560.00 228.80 552.10 C 243.00 540.90 258.40 531.70 274.50 523.70 C 278.30 521.80 279.90 519.60 280.00 515.30 C 280.60 485.40 289.50 457.80 303.40 431.50 C 314.30 411.00 328.40 392.90 345.10 377.00 C 361.40 361.50 379.60 348.40 399.70 337.80 C 413.20 330.70 426.90 324.20 441.50 320.40 C 465.10 314.10 488.90 308.50 513.50 307.30 C 544.50 305.80 574.70 309.70 604.10 319.30 C 632.20 328.50 657.90 342.20 680.40 361.70 C 695.20 374.50 709.10 388.40 719.00 405.30 C 724.60 414.80 730.60 418.30 741.70 418.40 C 759.80 418.50 777.90 421.00 795.30 426.50 C 805.80 429.90 816.00 434.00 823.80 442.30 C 832.20 451.20 834.30 464.00 829.20 475.20 C 822.60 489.60 811.40 499.90 799.00 509.20 C 783.90 520.50 767.60 529.80 750.80 538.30 C 748.30 539.50 747.20 541.40 746.70 544.10 C 741.90 567.30 733.80 589.30 721.50 609.50 C 704.70 637.20 682.90 660.20 656.40 678.90 C 629.50 697.90 600.00 711.00 568.20 718.90 C 552.70 722.80 536.90 725.30 520.80 725.70 C 515.80 726.10 510.70 726.00 505.50 726.00 Z M 295.00 524.30 C 295.70 534.10 296.20 544.90 298.00 555.60 C 300.30 568.60 304.70 581.00 309.60 593.20 C 310.60 595.70 311.90 598.10 315.30 597.90 C 326.40 597.20 337.60 596.90 348.60 595.70 C 365.90 593.80 383.20 591.40 400.50 589.10 C 420.00 586.50 439.30 583.00 458.50 578.80 C 469.50 576.40 480.60 573.90 491.60 571.40 C 501.20 569.30 510.70 567.10 520.20 564.70 C 535.70 560.80 551.10 556.60 566.40 552.20 C 589.20 545.80 611.70 538.70 634.00 530.90 C 648.80 525.80 663.30 520.00 677.80 514.20 C 694.50 507.50 710.60 499.60 726.60 491.30 C 730.20 489.40 731.00 487.10 730.10 483.20 C 727.50 471.00 724.50 458.90 720.50 447.10 C 717.60 438.50 714.50 429.90 709.30 422.70 C 698.40 407.50 687.30 392.30 673.20 379.60 C 657.80 365.80 640.80 354.50 622.20 345.80 C 596.80 334.10 570.10 326.60 542.00 324.80 C 511.60 322.80 481.60 324.00 452.30 333.80 C 435.00 339.60 418.20 346.20 402.30 355.00 C 387.30 363.40 373.30 373.40 360.60 385.00 C 344.00 400.10 330.10 417.40 319.00 437.10 C 304.00 463.90 296.20 492.60 295.00 524.30 Z M 506.80 709.90 C 513.40 709.30 520.00 708.60 526.60 708.10 C 554.90 706.20 581.60 698.70 607.30 687.10 C 631.30 676.30 652.90 661.80 671.90 643.50 C 685.90 630.00 697.70 614.80 707.50 598.00 C 715.50 584.20 721.70 569.80 725.80 554.40 C 726.10 553.30 726.90 552.00 725.90 551.10 C 724.60 549.90 723.40 551.30 722.30 551.80 C 696.70 562.60 670.80 572.40 644.30 581.10 C 608.40 592.90 571.90 602.40 535.10 611.10 C 512.80 616.40 490.20 620.30 467.60 624.40 C 444.40 628.60 421.00 631.90 397.60 634.70 C 380.10 636.80 362.50 637.50 344.90 638.90 C 343.50 639.00 341.60 638.40 341.00 640.20 C 340.50 641.60 342.10 642.50 343.00 643.40 C 352.30 653.50 362.80 662.20 374.10 670.00 C 392.50 682.90 412.60 692.50 434.10 699.00 C 445.90 702.60 457.80 705.70 470.10 707.10 C 482.30 708.60 494.50 709.70 506.80 709.90 Z M 360.30 617.40 C 360.30 617.50 360.30 617.60 360.30 617.70 C 368.90 617.00 377.60 616.90 386.10 615.60 C 402.50 613.10 419.10 612.00 435.60 609.20 C 454.50 606.00 473.40 603.40 492.10 599.40 C 514.20 594.70 536.40 590.10 558.30 584.50 C 588.30 576.90 618.00 568.10 647.40 558.40 C 663.80 553.00 680.10 547.10 696.20 540.50 C 711.40 534.30 726.60 527.90 741.50 520.80 C 757.40 513.20 772.50 503.90 786.90 493.70 C 794.90 488.10 802.70 482.00 808.20 473.60 C 815.00 463.40 812.60 454.80 801.20 449.90 C 795.50 447.40 789.80 445.20 783.80 443.80 C 782.40 443.50 780.70 442.30 779.60 443.60 C 778.40 445.00 780.10 446.40 780.80 447.50 C 786.90 457.20 785.40 466.80 778.90 475.00 C 767.40 489.40 752.40 500.10 736.30 508.30 C 722.40 515.30 708.20 522.00 693.80 528.10 C 667.70 539.10 641.20 548.90 614.20 557.60 C 595.70 563.60 577.10 569.20 558.20 574.20 C 540.70 578.80 523.20 583.70 505.50 587.70 C 490.60 591.00 475.80 595.10 460.70 597.80 C 440.60 601.40 420.50 605.40 400.20 607.90 C 378.40 610.60 356.60 613.90 334.70 614.80 C 316.80 615.60 298.90 616.20 281.00 615.10 C 270.50 614.50 260.10 613.10 250.10 610.00 C 237.80 606.10 227.00 600.40 227.90 584.70 C 228.00 583.70 227.80 582.50 226.70 582.20 C 225.60 581.90 225.00 582.90 224.30 583.60 C 219.20 589.60 220.10 598.60 226.30 603.40 C 233.10 608.70 241.20 610.70 249.20 612.80 C 262.30 616.20 275.80 617.20 289.10 618.90 C 303.50 620.70 318.00 620.00 332.40 619.20 C 341.70 618.70 351.00 618.00 360.30 617.40 Z M 283.70 597.00 C 285.20 597.10 286.70 597.10 288.20 597.20 C 293.10 597.50 293.70 596.70 292.10 591.90 C 291.10 588.90 289.80 586.00 288.80 583.00 C 286.20 574.70 284.00 566.40 282.30 557.90 C 281.90 555.90 281.60 553.40 278.60 555.10 C 267.30 561.80 256.20 569.00 247.70 579.30 C 243.70 584.20 244.30 586.80 249.80 590.10 C 251.50 591.10 253.40 591.90 255.30 592.50 C 264.40 595.60 274.00 596.60 283.70 597.00 Z M 764.00 460.50 C 764.00 456.80 762.00 455.10 759.10 453.90 C 754.60 452.00 750.00 451.00 745.10 450.50 C 741.90 450.10 741.10 451.10 742.10 454.00 C 744.30 460.50 745.80 467.10 746.90 473.80 C 747.40 476.50 748.70 476.80 750.70 475.60 C 755.80 472.40 760.00 468.10 763.30 463.00 C 763.80 462.20 763.80 461.10 764.00 460.50 Z" fill="#83769c" fill-rule="nonzero" group-id="2" node-id="104" stroke="none" target-height="420.60004" target-width="636.3" target-x="198" target-y="305.8"></path><path d="M 248.80 454.10 C 249.90 460.90 250.20 467.90 250.00 474.90 C 249.90 477.40 249.80 479.90 249.30 482.30 C 248.60 486.60 246.50 489.70 241.90 490.70 C 237.30 491.70 234.10 489.30 231.70 485.90 C 226.40 478.20 221.90 470.10 217.70 461.70 C 214.60 455.40 214.00 455.30 208.10 459.00 C 202.20 462.60 196.60 466.90 189.90 469.20 C 186.20 470.50 182.50 470.60 179.90 467.20 C 177.10 463.60 178.10 459.80 180.40 456.50 C 186.50 447.70 192.70 439.10 200.70 431.90 C 203.70 429.20 203.90 426.80 202.90 423.10 C 199.40 410.80 195.20 398.70 192.60 386.10 C 191.90 382.50 192.20 379.20 195.10 377.10 C 198.30 374.80 201.80 375.80 204.90 377.80 C 211.40 382.00 216.30 388.00 221.60 393.40 C 226.60 398.50 227.20 398.80 233.10 394.30 C 240.80 388.40 248.90 383.20 257.10 378.20 C 263.90 374.10 270.80 378.00 270.80 386.10 C 270.90 392.70 268.90 398.90 266.50 405.00 C 264.90 409.20 265.60 411.80 269.20 414.80 C 275.50 419.90 281.60 425.40 286.10 432.40 C 290.80 439.70 287.30 446.80 278.60 447.00 C 269.80 447.20 261.00 448.50 252.20 447.70 C 246.40 446.90 249.90 451.60 248.80 454.10 Z M 206.50 397.10 C 209.30 407.10 211.60 415.70 214.10 424.40 C 215.80 430.40 216.90 436.00 209.00 438.50 C 208.60 438.60 208.20 439.10 207.90 439.50 C 206.70 441.20 203.80 443.20 205.10 444.80 C 206.80 447.00 208.80 444.00 210.40 443.00 C 216.60 438.80 222.30 439.90 226.00 446.40 C 227.90 449.90 230.30 453.10 231.40 457.10 C 231.90 458.80 232.90 461.50 234.60 460.90 C 236.90 460.20 235.90 457.50 235.50 455.60 C 234.70 451.80 234.00 448.10 234.00 444.20 C 234.00 436.50 237.60 432.50 245.40 432.10 C 250.40 431.90 255.40 432.10 260.40 432.10 C 261.80 432.10 263.70 432.80 264.50 431.20 C 265.10 429.80 263.40 429.00 262.50 428.10 C 255.60 420.70 249.50 413.10 254.40 402.00 C 254.80 401.10 254.70 399.90 253.90 399.20 C 252.60 398.10 251.40 399.00 250.30 399.70 C 245.30 403.00 240.30 406.30 235.30 409.60 C 227.90 414.50 224.80 414.10 218.30 407.80 C 214.70 404.40 211.10 401.30 206.50 397.10 Z" fill="#83769c" fill-rule="nonzero" group-id="2" node-id="106" stroke="none" target-height="117.600006" target-width="113.69998" target-x="177.1" target-y="374.1"></path><path d="M 743.60 308.90 C 740.00 307.90 734.80 306.60 729.80 305.10 C 723.40 303.20 722.80 303.60 720.30 309.90 C 717.40 317.30 713.00 323.80 707.20 329.10 C 700.60 335.20 692.30 332.50 690.00 323.80 C 688.60 318.70 687.20 313.60 686.40 308.30 C 685.60 303.00 684.60 302.70 680.00 305.20 C 676.90 306.90 673.80 308.40 670.60 309.80 C 667.00 311.30 663.20 311.70 660.50 308.50 C 657.80 305.30 658.60 301.60 660.80 298.30 C 666.20 290.40 672.40 283.30 679.80 277.20 C 681.60 275.70 682.90 274.30 682.30 271.80 C 680.00 261.90 680.60 251.60 678.80 241.70 C 678.10 237.60 679.00 234.20 682.40 232.10 C 686.00 229.80 689.80 230.70 693.00 233.50 C 698.70 238.40 703.30 244.30 707.70 250.40 C 710.10 253.70 711.70 253.40 714.90 251.30 C 721.00 247.30 727.40 243.70 733.80 240.30 C 737.20 238.50 740.90 237.90 744.00 240.90 C 747.10 244.00 747.40 247.80 745.00 251.40 C 742.40 255.30 739.80 259.10 736.70 262.60 C 734.50 265.10 734.40 266.70 736.60 269.30 C 743.10 277.20 750.30 284.80 754.90 294.00 C 759.10 302.30 754.60 308.90 743.60 308.90 Z M 721.30 263.80 C 720.00 264.60 719.20 265.20 718.40 265.60 C 711.50 269.30 708.00 268.70 702.70 263.00 C 699.60 259.70 696.70 256.30 693.60 253.10 C 693.00 252.40 692.20 251.40 691.10 252.00 C 690.00 252.60 690.60 253.80 690.70 254.70 C 691.40 260.50 692.10 266.20 692.70 272.00 C 693.20 276.70 694.30 281.70 688.70 284.70 C 686.40 285.90 686.50 287.50 689.50 288.00 C 694.80 288.90 697.40 292.40 698.30 297.50 C 699.00 301.10 700.00 304.60 700.90 308.20 C 701.20 309.40 700.90 311.10 702.70 311.30 C 704.30 311.50 705.00 310.10 705.70 309.00 C 707.40 306.30 708.80 303.40 710.70 301.00 C 714.30 296.40 717.60 291.30 724.90 292.00 C 727.90 292.30 732.70 294.20 733.60 291.90 C 734.70 289.10 730.70 286.10 728.70 283.30 C 724.50 277.50 720.00 272.10 721.30 263.80 Z" fill="#83769c" fill-rule="nonzero" group-id="2" node-id="108" stroke="none" target-height="105.40001" target-width="101.29999" target-x="657.8" target-y="229.8"></path><path d="M 462.00 549.00 C 445.20 547.90 429.10 544.50 415.00 534.60 C 411.10 531.90 408.00 528.50 405.40 524.60 C 403.50 521.80 403.40 518.90 405.90 516.40 C 408.40 514.00 410.40 516.00 412.50 517.50 C 440.50 537.80 470.70 538.20 501.60 525.90 C 515.10 520.60 525.40 510.30 535.50 500.00 C 537.20 498.20 539.00 496.40 541.10 495.10 C 543.60 493.50 546.50 493.30 549.00 495.50 C 551.30 497.50 551.50 500.10 550.50 502.80 C 549.80 504.50 549.10 506.40 547.80 507.50 C 535.90 517.60 525.70 529.70 511.50 536.90 C 500.10 542.70 488.10 546.20 475.50 547.90 C 471.00 548.50 466.50 549.50 462.00 549.00 Z" fill="#83769c" fill-rule="nonzero" group-id="2" node-id="110" stroke="none" target-height="56.200012" target-width="148.1" target-x="403.4" target-y="493.3"></path><path d="M 412.90 461.20 C 413.10 452.30 414.20 444.90 416.10 437.60 C 416.60 435.70 417.40 433.70 418.60 432.20 C 422.80 427.10 428.00 423.20 434.90 424.10 C 441.40 425.00 445.70 429.70 447.60 435.60 C 452.90 451.80 451.90 467.50 441.20 481.40 C 437.50 486.30 432.40 489.80 425.70 488.00 C 418.90 486.20 415.90 481.10 414.90 474.50 C 414.20 469.70 412.40 464.90 412.90 461.20 Z M 427.00 454.90 C 427.10 459.40 427.10 463.50 428.00 467.60 C 428.20 468.60 428.20 469.80 429.30 470.00 C 430.40 470.20 431.10 469.30 431.50 468.40 C 434.70 461.00 436.90 453.40 435.50 445.30 C 435.20 443.40 434.90 440.80 432.50 440.60 C 429.80 440.40 428.50 442.70 427.70 444.90 C 426.50 448.30 427.20 451.80 427.00 454.90 Z" fill="#83769c" fill-rule="nonzero" group-id="2" node-id="112" stroke="none" target-height="66.599976" target-width="40.5" target-x="412.4" target-y="423.20004"></path><path d="M 490.00 439.20 C 489.70 433.20 489.90 427.50 491.90 422.10 C 494.40 415.50 499.00 410.80 505.60 408.50 C 512.60 406.00 520.60 410.80 523.00 418.80 C 526.90 432.10 527.30 445.40 521.80 458.40 C 518.80 465.60 513.70 469.20 506.60 469.10 C 500.50 468.90 495.40 464.70 492.70 458.00 C 490.30 451.80 489.50 445.40 490.00 439.20 Z M 504.10 436.50 C 503.90 440.80 504.30 445.50 506.00 450.10 C 506.30 450.90 506.60 451.80 507.50 451.80 C 508.00 451.80 508.70 451.20 508.90 450.70 C 511.50 443.10 513.70 435.50 510.40 427.60 C 509.90 426.20 509.40 424.50 507.50 424.80 C 505.50 425.10 504.30 426.50 504.20 428.60 C 503.90 430.90 504.10 433.40 504.10 436.50 Z" fill="#83769c" fill-rule="nonzero" group-id="2" node-id="114" stroke="none" target-height="63.19998" target-width="37.799957" target-x="489.50003" target-y="406"></path><path d="M 388.10 496.50 C 388.40 519.40 378.00 536.80 364.00 552.50 C 362.40 554.30 360.40 555.70 357.90 554.10 C 355.60 552.60 355.30 550.60 355.80 548.00 C 357.30 539.30 362.30 532.00 365.90 524.20 C 373.00 508.90 372.80 493.30 368.50 477.50 C 367.40 473.60 364.80 470.10 361.80 467.10 C 359.70 465.00 358.30 462.40 359.90 459.40 C 361.60 456.20 364.90 455.60 368.20 456.20 C 372.50 456.90 375.60 459.60 378.20 463.00 C 385.80 473.20 387.60 485.00 388.10 496.50 Z" fill="#83769c" fill-rule="nonzero" group-id="2" node-id="116" stroke="none" target-height="100.100006" target-width="33.100006" target-x="355.3" target-y="455.6"></path><path d="M 559.10 451.30 C 560.10 442.40 561.40 431.70 568.50 423.00 C 570.80 420.20 573.30 417.20 577.80 419.00 C 581.40 420.50 583.00 423.10 581.10 426.50 C 575.60 436.20 574.90 446.90 575.70 457.50 C 576.40 466.20 579.60 474.70 584.70 482.10 C 588.40 487.50 592.30 492.60 596.00 498.00 C 597.20 499.70 598.70 501.80 597.00 503.90 C 595.20 506.10 592.70 506.20 590.10 505.40 C 585.70 504.10 582.30 501.00 578.90 498.10 C 565.00 486.30 559.40 470.80 559.10 451.30 Z" fill="#83769c" fill-rule="nonzero" group-id="2" node-id="118" stroke="none" target-height="89" target-width="39.600037" target-x="559.1" target-y="417.2"></path><path d="M 321.90 540.10 C 316.00 540.10 311.00 531.70 313.80 526.50 C 313.90 526.40 313.90 526.20 314.00 526.10 C 315.60 523.80 317.70 522.80 320.50 524.00 C 324.40 525.60 327.80 532.20 326.90 536.60 C 326.50 539.10 325.10 540.10 321.90 540.10 Z" fill="#83769c" fill-rule="nonzero" group-id="2" node-id="120" stroke="none" target-height="17.299988" target-width="16.799988" target-x="311" target-y="522.8"></path><path d="M 612.00 478.20 C 612.00 480.90 611.30 483.30 608.00 483.40 C 604.00 483.60 598.00 476.60 598.30 472.20 C 598.60 468.80 600.70 467.20 604.00 467.20 C 608.10 467.10 612.10 472.70 612.00 478.20 Z" fill="#83769c" fill-rule="nonzero" group-id="2" node-id="122" stroke="none" target-height="16.5" target-width="14.099976" target-x="598" target-y="467.1"></path><path d="M 324.90 487.70 C 324.50 490.20 324.00 493.40 320.10 493.50 C 316.90 493.60 312.10 488.20 312.10 484.40 C 312.10 480.80 313.20 477.70 317.40 477.20 C 321.50 476.70 324.70 481.10 324.90 487.70 Z" fill="#83769c" fill-rule="nonzero" group-id="2" node-id="124" stroke="none" target-height="16.899963" target-width="12.799988" target-x="312.1" target-y="476.7"></path><path d="M 341.00 479.10 C 341.30 482.60 339.40 484.70 335.60 484.90 C 331.70 485.10 328.00 480.90 328.00 476.60 C 328.10 472.70 330.00 470.30 334.00 470.10 C 337.90 469.90 340.90 473.80 341.00 479.10 Z" fill="#83769c" fill-rule="nonzero" group-id="2" node-id="126" stroke="none" target-height="15.200012" target-width="13.299988" target-x="328" target-y="469.9"></path><path d="M 606.00 415.40 C 606.40 412.40 607.60 409.90 611.50 410.10 C 615.20 410.20 619.80 416.00 619.50 420.20 C 619.30 423.20 617.40 424.60 614.60 424.70 C 611.00 424.80 605.90 419.30 606.00 415.40 Z" fill="#83769c" fill-rule="nonzero" group-id="2" node-id="128" stroke="none" target-height="14.899963" target-width="13.899963" target-x="605.9" target-y="409.9"></path><path d="M 601.00 429.70 C 600.80 432.30 600.30 435.40 596.30 435.60 C 592.90 435.80 589.00 430.90 589.00 426.80 C 589.00 423.20 590.50 420.60 594.40 420.30 C 598.10 419.90 601.10 424.10 601.00 429.70 Z" fill="#83769c" fill-rule="nonzero" group-id="2" node-id="130" stroke="none" target-height="15.899994" target-width="12.099976" target-x="589" target-y="419.9"></path><path d="M 314.10 513.00 C 314.10 516.00 314.00 518.90 309.90 519.00 C 306.20 519.10 302.00 514.30 302.30 510.10 C 302.50 506.80 304.20 504.40 307.80 504.20 C 311.90 503.90 314.20 507.20 314.10 513.00 Z" fill="#83769c" fill-rule="nonzero" group-id="2" node-id="132" stroke="none" target-height="15.199982" target-width="12.200012" target-x="302" target-y="503.9"></path><path d="M 357.90 472.60 C 357.90 475.80 356.30 477.60 353.20 477.70 C 349.60 477.80 345.30 473.30 345.40 469.40 C 345.50 465.60 347.80 463.70 351.30 463.40 C 354.60 463.30 357.80 467.80 357.90 472.60 Z" fill="#83769c" fill-rule="nonzero" group-id="2" node-id="134" stroke="none" target-height="14.5" target-width="12.600037" target-x="345.29996" target-y="463.3"></path><path d="M 356.00 499.70 C 355.80 502.20 354.70 504.50 351.30 504.60 C 347.90 504.80 343.30 500.70 343.50 497.50 C 343.70 494.30 345.50 492.20 348.90 492.20 C 352.60 492.20 356.00 495.60 356.00 499.70 Z" fill="#83769c" fill-rule="nonzero" group-id="2" node-id="136" stroke="none" target-height="12.599945" target-width="12.700012" target-x="343.3" target-y="492.2"></path><path d="M 640.10 466.80 C 636.70 466.90 631.50 462.20 631.60 459.20 C 631.70 456.10 633.50 454.30 636.60 454.20 C 639.50 454.10 644.40 459.20 644.40 462.20 C 644.50 465.20 642.40 466.30 640.10 466.80 Z" fill="#83769c" fill-rule="nonzero" group-id="2" node-id="138" stroke="none" target-height="12.799988" target-width="13" target-x="631.5" target-y="454.1"></path><path d="M 633.30 428.10 C 637.50 428.00 640.00 431.20 640.00 436.20 C 640.00 438.80 639.40 440.90 636.20 440.90 C 632.80 440.90 628.30 436.80 628.40 433.60 C 628.60 430.30 630.40 428.40 633.30 428.10 Z" fill="#83769c" fill-rule="nonzero" group-id="2" node-id="140" stroke="none" target-height="12.899994" target-width="11.700012" target-x="628.3" target-y="428"></path><path d="M 643.00 410.80 C 643.20 413.40 642.20 415.00 639.10 415.00 C 635.30 415.10 632.10 412.40 632.00 408.90 C 631.90 406.00 632.80 403.50 636.20 403.30 C 639.70 403.10 642.90 406.70 643.00 410.80 Z" fill="#83769c" fill-rule="nonzero" group-id="2" node-id="142" stroke="none" target-height="11.9999695" target-width="11.299988" target-x="631.9" target-y="403.1"></path><path d="M 595.30 459.60 C 595.40 462.00 594.30 462.80 592.20 462.60 C 588.60 462.40 584.10 458.60 584.10 455.50 C 584.20 452.70 585.60 450.70 588.50 450.40 C 591.80 450.20 595.40 455.40 595.30 459.60 Z" fill="#83769c" fill-rule="nonzero" group-id="2" node-id="144" stroke="none" target-height="12.599976" target-width="11.300049" target-x="584.1" target-y="450.2"></path><path d="M 341.90 523.00 C 341.60 525.20 340.80 527.30 337.80 527.40 C 335.00 527.50 331.00 523.20 331.20 520.30 C 331.40 517.50 332.80 515.60 335.80 515.30 C 338.70 515.10 342.00 519.10 341.90 523.00 Z" fill="#83769c" fill-rule="nonzero" group-id="2" node-id="146" stroke="none" target-height="12.400024" target-width="11" target-x="331" target-y="515.1"></path><path d="M 360.10 513.20 C 359.90 516.30 358.90 518.30 355.70 518.40 C 352.40 518.50 349.00 515.20 349.30 512.10 C 349.60 509.00 351.50 507.10 354.50 507.20 C 358.40 507.30 359.80 510.00 360.10 513.20 Z" fill="#83769c" fill-rule="nonzero" group-id="2" node-id="148" stroke="none" target-height="11.399994" target-width="11.100006" target-x="349" target-y="507.1"></path><path d="M 620.30 469.80 C 616.60 469.40 614.40 467.50 614.20 463.80 C 614.00 460.70 615.90 458.90 619.00 458.60 C 621.40 458.40 625.60 463.00 625.60 465.80 C 625.50 469.30 622.50 469.20 620.30 469.80 Z" fill="#83769c" fill-rule="nonzero" group-id="2" node-id="150" stroke="none" target-height="11.399994" target-width="11.599976" target-x="614" target-y="458.4"></path><path d="M 627.60 478.30 C 630.80 478.30 633.80 481.90 633.60 485.30 C 633.50 487.80 632.30 489.60 629.60 489.20 C 626.10 488.70 623.20 487.10 623.10 483.00 C 623.00 479.90 625.00 478.60 627.60 478.30 Z" fill="#83769c" fill-rule="nonzero" group-id="2" node-id="152" stroke="none" target-height="11.300018" target-width="10.799988" target-x="623" target-y="478.3"></path><path d="M 618.60 440.50 C 618.10 443.10 617.30 445.30 614.40 445.60 C 611.60 445.90 607.30 441.80 607.40 438.90 C 607.50 435.90 609.80 434.80 612.10 434.80 C 615.90 434.70 617.40 437.60 618.60 440.50 Z" fill="#83769c" fill-rule="nonzero" group-id="2" node-id="154" stroke="none" target-height="11.199982" target-width="11.299988" target-x="607.3" target-y="434.7"></path><path d="M 334.00 504.70 C 334.00 508.50 332.10 509.90 329.00 509.90 C 325.80 509.90 324.00 508.20 324.10 505.00 C 324.20 501.90 325.70 499.30 329.10 499.40 C 332.50 499.50 333.80 502.10 334.00 504.70 Z" fill="#83769c" fill-rule="nonzero" group-id="2" node-id="156" stroke="none" target-height="10.600006" target-width="10" target-x="324" target-y="499.3"></path></g></svg>